<?xml version="1.0" encoding="utf-8"?>
<!-- Generator: Adobe Illustrator 24.3.0, SVG Export Plug-In . SVG Version: 6.00 Build 0)  -->
<svg version="1.1" id="Layer_1" xmlns="http://www.w3.org/2000/svg" xmlns:xlink="http://www.w3.org/1999/xlink" x="0px" y="0px"
	 viewBox="0 0 551.9 152.2" style="enable-background:new 0 0 551.9 152.2;" xml:space="preserve">
<style type="text/css">
	.st0{fill:none;stroke:#ACCCFF;stroke-width:2;stroke-miterlimit:10;}
	.st1{enable-background:new    ;}
	.st2{fill:#FFFFFF;}
</style>
<g>
	<line class="st0" x1="0" y1="141.2" x2="151" y2="140.7"/>
	<g class="st1">
		<path class="st2" d="M171.8,139.4v-10c0-5.7,3.2-8.8,8.9-8.8h3.3c4.1,0,7.3,2.8,7.3,6.8v0.4h-3v-0.4c0-2.4-1.6-4.1-4.3-4.1h-3.3
			c-4.1,0-5.9,2.2-5.9,6v10c0,4.4,2.1,7,6.7,7h1.9c3.3,0,5.3-1.9,5.3-4.8v-0.5h3v0.5c0,4.3-3.3,7.5-8.2,7.5h-1.9
			C175.4,149.1,171.8,145.7,171.8,139.4z"/>
		<path class="st2" d="M196.1,141.7v-5.9c0-4.3,2.5-7.5,7.3-7.5h2.1c4.8,0,7.3,3.2,7.3,7.5v5.9c0,4.3-2.5,7.5-7.3,7.5h-2.1
			C198.6,149.2,196.1,146,196.1,141.7z M203.2,119.6h2.6l5.7,5.8H208l-3.4-3.6h-0.4l-3.3,3.6h-3.4L203.2,119.6z M205.4,146.6
			c3,0,4.6-1.9,4.6-4.9v-5.9c0-3-1.6-4.9-4.6-4.9h-2c-3,0-4.6,1.9-4.6,4.9v5.9c0,3,1.6,4.9,4.6,4.9H205.4z"/>
		<path class="st2" d="M220,143.3v-12.1h-4.1v-2.6h4.1l0.7-5.7h2v5.7h5v2.6h-5v12.1c0,2.1,0.8,3.3,2.7,3.3h2.3v2.5h-2.3
			C221.8,149,220,147.1,220,143.3z"/>
		<path class="st2" d="M231.7,142v-7.1c0-3.7,2.6-6.4,6.5-6.4h2.6c4.5,0,7.1,2.6,7.1,6.9v1.9l-4.1,3.5h-9.3v1.2
			c0,2.6,1.6,4.4,4.2,4.4h8.4v2.6h-8.3C234.5,149,231.7,146.1,231.7,142z M243,138.3l2.1-1.8v-1c0-2.7-1.4-4.3-4.2-4.3h-2.8
			c-2.2,0-3.6,1.4-3.6,3.7v3.4H243z"/>
		<path class="st2" d="M265.4,141.6v-5.8c0-4.4,3.1-7.2,7.1-7.2h1.4c1.8,0,2.6,0.5,3.6,1.2l1.8,1.4V123H276v-2.3h6V149h-2.3
			l-0.4-2.5l-1.5,1.4c-0.8,0.7-1.8,1.2-3.4,1.2h-1.8C268.3,149,265.4,146,265.4,141.6z M274.3,146.5c1.8,0,2.3-0.5,3.2-1.3l1.7-1.6
			v-9.5l-2.1-1.6c-1-0.7-1.4-1.3-3.2-1.3h-1.5c-2.5,0-4.3,1.6-4.3,4.6v5.8c0,3,2,4.9,4.5,4.9H274.3z"/>
		<path class="st2" d="M287.6,128l1.7-3v-0.3h-1.5v-4.2h4.4v2.9c0,0.7-0.3,1.4-0.6,1.8l-2.6,3.6L287.6,128z"/>
		<path class="st2" d="M298.4,129.6c0-1.6,0.4-2.7,1.7-3.9l4.2-3.9c0.9-0.8,1.9-1.2,3.5-1.2h2.9c4.7,0,7.9,3.3,7.9,7.7V149h-3V138
			h-14.3V149h-3V129.6z M315.6,135.2v-6.8c0-3.1-2.1-5-5-5h-2.5c-1.1,0-1.6,0.2-2.4,0.9l-3.5,3.3c-0.5,0.5-0.9,1.1-0.9,1.9v5.6
			H315.6z"/>
		<path class="st2" d="M324.1,146.5l12.1-15.3h-11.5v-2.6h15v2.6l-12.1,15.3h12.1v2.6h-15.6V146.5z"/>
		<path class="st2" d="M344.7,141.9v-13.4h2.7v13.4c0,2.9,1.8,4.5,4.2,4.5h1.4c1.7,0,2.3-0.6,3.2-1.4l2.1-1.9v-14.6h2.7V149h-2.3
			l-0.4-3l-1.6,1.4c-1,0.9-2,1.5-3.7,1.5h-1.4C347.7,149,344.7,146.7,344.7,141.9z"/>
		<path class="st2" d="M367.4,128.6h2.7v3.4l2-1.8c1-0.9,2-1.5,4.1-1.5h3.9v2.6h-3.9c-2,0-2.6,0.6-3.6,1.6l-2.5,2.3v14h-2.7V128.6z"
			/>
	</g>
	<line class="st0" x1="398" y1="140.2" x2="549" y2="139.7"/>
	<g class="st1">
		<path class="st2" d="M4.3,5.8H13v74.4h39.4v8h-48V5.8z"/>
		<path class="st2" d="M60.7,67.8V47.2c0-10.8,7.7-18.5,19-18.5h7.7c13.1,0,20.6,7.5,20.6,20v5.5L96,64.4H68.8v3.5
			c0,7.6,4.8,12.9,12.4,12.9h24.5v7.5H81.4C68.9,88.2,60.7,79.7,60.7,67.8z M93.7,56.9l6.2-5.2v-2.9c0-7.9-4.1-12.5-12.4-12.5h-8.2
			c-6.5,0-10.7,4.2-10.7,10.8v9.8H93.7z"/>
		<path class="st2" d="M124.6,5.8h51.4v8h-42.7v27.7h33.8v8h-33.8v38.7h-8.6V5.8z"/>
		<path class="st2" d="M190.3,5.8h8.6v82.4h-8.6V5.8z"/>
		<path class="st2" d="M221.8,5.8h9.6l38.5,61.7l3.8,8.1l-0.4-13.8v-56h8.6v82.4h-8.8l-38.9-62.6l-4.3-8.8l0.4,15.4v56.1h-8.6V5.8z"
			/>
		<path class="st2" d="M303.6,5.8h9.6l38.5,61.7l3.8,8.1l-0.4-13.8v-56h8.6v82.4h-8.8l-38.9-62.6l-4.3-8.8l0.4,15.4v56.1h-8.6V5.8z"
			/>
		<path class="st2" d="M384.2,61.5V32.5c0-17.4,9.8-26.9,26.3-26.9h8.2c16.4,0,26.3,9.5,26.3,26.9v29.1c0,17.4-9.8,26.9-26.3,26.9
			h-8.2C394.1,88.4,384.2,78.9,384.2,61.5z M418.7,80.5c11.8,0,17.6-6.2,17.6-18.9V32.5c0-12.7-5.9-18.9-17.6-18.9h-8.2
			c-11.8,0-17.6,6.2-17.6,18.9v29.1c0,12.7,5.9,18.9,17.6,18.9H418.7z"/>
		<path class="st2" d="M466.6,5.8h8.6v82.4h-8.6V5.8z"/>
		<path class="st2" d="M495.2,80.2h31.6c7.9,0,13.3-3.6,13.3-11.9v-1.7c0-6.4-4.7-10.5-10.1-12.7L508.6,45
			c-7.7-3.2-14.8-9.2-14.8-19.4v-1.9c0-9.9,7.3-17.9,20-17.9h31.3v8h-31.3c-7.1,0-11.4,4-11.4,9.9v1.8c0,5.1,3.5,9.3,9.1,11.7
			l20,8.3c10,4.2,17.2,9.9,17.2,21.2v1.7c0,12.3-8.3,19.9-22,19.9h-31.6V80.2z"/>
	</g>
</g>
</svg>
